<svg xmlns="http://www.w3.org/2000/svg" viewBox="0 0 1440 320" height="100%" width="100%" preserveAspectRatio="none">
<path fill="#ff5500" fill-opacity="1" d="M0,64L17.1,64C34.3,64,69,64,103,80C137.1,96,171,128,206,160C240,192,274,224,309,197.3C342.9,171,377,85,411,58.7C445.7,32,480,64,514,90.7C548.6,117,583,139,617,133.3C651.4,128,686,96,720,112C754.3,128,789,192,823,192C857.1,192,891,128,926,101.3C960,75,994,85,1029,122.7C1062.9,160,1097,224,1131,261.3C1165.7,299,1200,309,1234,266.7C1268.6,224,1303,128,1337,90.7C1371.4,53,1406,75,1423,85.3L1440,96L1440,320L1422.9,320C1405.7,320,1371,320,1337,320C1302.9,320,1269,320,1234,320C1200,320,1166,320,1131,320C1097.1,320,1063,320,1029,320C994.3,320,960,320,926,320C891.4,320,857,320,823,320C788.6,320,754,320,720,320C685.7,320,651,320,617,320C582.9,320,549,320,514,320C480,320,446,320,411,320C377.1,320,343,320,309,320C274.3,320,240,320,206,320C171.4,320,137,320,103,320C68.6,320,34,320,17,320L0,320Z"></path>
</svg>